<svg width="180" height="180" viewBox="0 0 180 180" fill="none" xmlns="http://www.w3.org/2000/svg">
  <rect width="180" height="180" fill="transparent"/>
  <g stroke="#C78705" stroke-opacity="0.7" stroke-width="5">
    <path d="M0 45C7 16 27 0 45 0C63 0 83 16 90 45"/>
    <path d="M14 45C19 24 31 12 45 12C59 12 71 24 76 45"/>
    <path d="M27 45C31 31 37 25 45 25C53 25 59 31 63 45"/>
    <path d="M45 45C52 16 72 0 90 0C108 0 128 16 135 45"/>
    <path d="M59 45C64 24 76 12 90 12C104 12 116 24 121 45"/>
    <path d="M72 45C76 31 82 25 90 25C98 25 104 31 108 45"/>
    <path d="M90 45C97 16 117 0 135 0C153 0 173 16 180 45"/>
    <path d="M104 45C109 24 121 12 135 12C149 12 161 24 166 45"/>
    <path d="M117 45C121 31 127 25 135 25C143 25 149 31 153 45"/>
    <path d="M0 90C7 61 27 45 45 45C63 45 83 61 90 90"/>
    <path d="M14 90C19 69 31 57 45 57C59 57 71 69 76 90"/>
    <path d="M27 90C31 76 37 70 45 70C53 70 59 76 63 90"/>
    <path d="M45 90C52 61 72 45 90 45C108 45 128 61 135 90"/>
    <path d="M59 90C64 69 76 57 90 57C104 57 116 69 121 90"/>
    <path d="M72 90C76 76 82 70 90 70C98 70 104 76 108 90"/>
    <path d="M90 90C97 61 117 45 135 45C153 45 173 61 180 90"/>
    <path d="M104 90C109 69 121 57 135 57C149 57 161 69 166 90"/>
    <path d="M117 90C121 76 127 70 135 70C143 70 149 76 153 90"/>
    <path d="M0 135C7 106 27 90 45 90C63 90 83 106 90 135"/>
    <path d="M14 135C19 114 31 102 45 102C59 102 71 114 76 135"/>
    <path d="M27 135C31 121 37 115 45 115C53 115 59 121 63 135"/>
    <path d="M45 135C52 106 72 90 90 90C108 90 128 106 135 135"/>
    <path d="M59 135C64 114 76 102 90 102C104 102 116 114 121 135"/>
    <path d="M72 135C76 121 82 115 90 115C98 115 104 121 108 135"/>
    <path d="M90 135C97 106 117 90 135 90C153 90 173 106 180 135"/>
    <path d="M104 135C109 114 121 102 135 102C149 102 161 114 166 135"/>
    <path d="M117 135C121 121 127 115 135 115C143 115 149 121 153 135"/>
    <path d="M0 180C7 151 27 135 45 135C63 135 83 151 90 180"/>
    <path d="M14 180C19 159 31 147 45 147C59 147 71 159 76 180"/>
    <path d="M27 180C31 166 37 160 45 160C53 160 59 166 63 180"/>
    <path d="M45 180C52 151 72 135 90 135C108 135 128 151 135 180"/>
    <path d="M59 180C64 159 76 147 90 147C104 147 116 159 121 180"/>
    <path d="M72 180C76 166 82 160 90 160C98 160 104 166 108 180"/>
    <path d="M90 180C97 151 117 135 135 135C153 135 173 151 180 180"/>
    <path d="M104 180C109 159 121 147 135 147C149 147 161 159 166 180"/>
    <path d="M117 180C121 166 127 160 135 160C143 160 149 166 153 180"/>
  </g>
</svg>
