<svg width="240" height="120" viewBox="0 0 240 120" fill="none" xmlns="http://www.w3.org/2000/svg">
  <rect width="240" height="120" fill="transparent"/>
  <g opacity="0.6" stroke="#D4A12E" stroke-width="3">
    <path d="M0 60C10 40 30 28 60 28C90 28 110 40 120 60"/>
    <path d="M15 60C23 46 38 38 60 38C82 38 97 46 105 60"/>
    <path d="M28 60C34 51 45 46 60 46C75 46 86 51 92 60"/>
    <path d="M60 60C70 40 90 28 120 28C150 28 170 40 180 60"/>
    <path d="M75 60C83 46 98 38 120 38C142 38 157 46 165 60"/>
    <path d="M88 60C94 51 105 46 120 46C135 46 146 51 152 60"/>
    <path d="M120 60C130 40 150 28 180 28C210 28 230 40 240 60"/>
    <path d="M135 60C143 46 158 38 180 38C202 38 217 46 225 60"/>
    <path d="M148 60C154 51 165 46 180 46C195 46 206 51 212 60"/>
    <path d="M0 120C10 100 30 88 60 88C90 88 110 100 120 120"/>
    <path d="M15 120C23 106 38 98 60 98C82 98 97 106 105 120"/>
    <path d="M28 120C34 111 45 106 60 106C75 106 86 111 92 120"/>
    <path d="M60 120C70 100 90 88 120 88C150 88 170 100 180 120"/>
    <path d="M75 120C83 106 98 98 120 98C142 98 157 106 165 120"/>
    <path d="M88 120C94 111 105 106 120 106C135 106 146 111 152 120"/>
    <path d="M120 120C130 100 150 88 180 88C210 88 230 100 240 120"/>
    <path d="M135 120C143 106 158 98 180 98C202 98 217 106 225 120"/>
    <path d="M148 120C154 111 165 106 180 106C195 106 206 111 212 120"/>
  </g>
</svg>
